<svg xmlns="http://www.w3.org/2000/svg" viewBox="0 0 200 200">
  <defs>
    <linearGradient id="sg" x1="0" y1="0" x2="1" y2="1">
      <stop offset="0%" stop-color="#8C1515"/>
      <stop offset="100%" stop-color="#B83A3A"/>
    </linearGradient>
  </defs>
  <circle cx="100" cy="100" r="96" fill="url(#sg)"/>
  <path d="M100 28c-6.6 0-12.4 1.8-17.4 5.2C77.2 27.4 69.6 24 61 24c-19.8 0-36 16.2-36 36 0 6.6 1.8 12.8 5 18.2-5.6 5.4-9 12.8-9 21 0 15.6 11.4 28.4 26.4 30.8C51 136.4 57.4 140 65 140c6.6 0 12.6-2.6 17-6.8 4.6 4.2 10.6 6.8 17.2 6.8h1.6c6.6 0 12.6-2.6 17-6.8 4.6 4.2 10.6 6.8 17.2 6.8 7.6 0 14-3.6 17.6-10 15-2.4 26.4-15.2 26.4-30.8 0-8.2-3.4-15.6-9-21 3.2-5.4 5-11.6 5-18.2 0-19.8-16.2-36-36-36-8.6 0-16.2 3.4-21.6 9.2C111.4 29.8 106 28 100 28z" fill="#fff"/>
  <text x="100" y="118" text-anchor="middle" font-family="serif" font-weight="700" font-size="72" fill="#8C1515">S</text>
</svg>
